<svg xmlns="http://www.w3.org/2000/svg" width="1200" height="760" viewBox="0 0 1200 760" role="img" aria-labelledby="title desc">
  <title id="title">Banner de loja virtual</title>
  <desc id="desc">Arte premium de e-commerce com vitrine digital, produtos, ofertas, carrinho e sacolas.</desc>
  <defs>
    <linearGradient id="bg" x1="0" y1="0" x2="1" y2="1">
      <stop offset="0" stop-color="#020617"/>
      <stop offset="0.48" stop-color="#0f172a"/>
      <stop offset="1" stop-color="#064e3b"/>
    </linearGradient>
    <linearGradient id="panel" x1="0" y1="0" x2="1" y2="1">
      <stop offset="0" stop-color="#1e293b"/>
      <stop offset="1" stop-color="#0f172a"/>
    </linearGradient>
    <linearGradient id="green" x1="0" y1="0" x2="1" y2="1">
      <stop offset="0" stop-color="#34d399"/>
      <stop offset="1" stop-color="#059669"/>
    </linearGradient>
    <linearGradient id="blue" x1="0" y1="0" x2="1" y2="1">
      <stop offset="0" stop-color="#93c5fd"/>
      <stop offset="1" stop-color="#2563eb"/>
    </linearGradient>
    <filter id="shadow" x="-20%" y="-20%" width="140%" height="140%">
      <feDropShadow dx="0" dy="22" stdDeviation="20" flood-color="#000000" flood-opacity=".34"/>
    </filter>
  </defs>

  <rect width="1200" height="760" fill="url(#bg)"/>
  <path d="M0 600C190 548 335 633 502 580c172-54 242-202 415-217 122-10 214 44 283 104v293H0Z" fill="#10b981" opacity=".12"/>
  <circle cx="1020" cy="126" r="155" fill="#22c55e" opacity=".16"/>
  <circle cx="132" cy="640" r="188" fill="#2563eb" opacity=".14"/>

  <g filter="url(#shadow)">
    <rect x="128" y="92" width="944" height="576" rx="38" fill="#0b1220" opacity=".88"/>
    <rect x="154" y="118" width="892" height="524" rx="28" fill="url(#panel)" stroke="#334155" stroke-width="2"/>
  </g>

  <g transform="translate(196 170)">
    <rect width="490" height="324" rx="26" fill="#020617" stroke="#334155" stroke-width="2"/>
    <rect x="28" y="30" width="434" height="42" rx="16" fill="#111827"/>
    <circle cx="56" cy="51" r="7" fill="#ef4444"/>
    <circle cx="81" cy="51" r="7" fill="#f59e0b"/>
    <circle cx="106" cy="51" r="7" fill="#22c55e"/>
    <rect x="300" y="43" width="128" height="16" rx="8" fill="#334155"/>

    <rect x="32" y="100" width="122" height="164" rx="18" fill="#111827" stroke="#334155"/>
    <rect x="54" y="122" width="78" height="54" rx="14" fill="url(#blue)"/>
    <path d="M72 154h44" stroke="#ffffff" stroke-width="8" stroke-linecap="round" opacity=".82"/>
    <rect x="54" y="202" width="72" height="12" rx="6" fill="#e2e8f0"/>
    <rect x="54" y="226" width="54" height="10" rx="5" fill="#22c55e"/>

    <rect x="184" y="100" width="122" height="164" rx="18" fill="#111827" stroke="#334155"/>
    <path d="M224 143c0-25 41-25 41 0v45h-41Z" fill="#f8fafc"/>
    <path d="M216 188h57l-10 42h-37Z" fill="url(#green)"/>
    <rect x="206" y="202" width="76" height="12" rx="6" fill="#e2e8f0"/>
    <rect x="206" y="226" width="48" height="10" rx="5" fill="#22c55e"/>

    <rect x="336" y="100" width="122" height="164" rx="18" fill="#111827" stroke="#334155"/>
    <rect x="362" y="126" width="70" height="48" rx="10" fill="#f59e0b"/>
    <path d="M360 186h74l14 26H346Z" fill="#cbd5e1"/>
    <rect x="358" y="226" width="80" height="10" rx="5" fill="#22c55e"/>
  </g>

  <g transform="translate(742 176)" filter="url(#shadow)">
    <rect width="248" height="328" rx="32" fill="#f8fafc"/>
    <rect x="26" y="28" width="196" height="44" rx="16" fill="#dcfce7"/>
    <text x="124" y="57" text-anchor="middle" font-family="Arial, sans-serif" font-size="18" font-weight="800" fill="#047857">OFERTAS</text>

    <rect x="34" y="104" width="180" height="58" rx="18" fill="#e0f2fe"/>
    <circle cx="65" cy="133" r="16" fill="#2563eb"/>
    <rect x="94" y="121" width="86" height="10" rx="5" fill="#0f172a" opacity=".72"/>
    <rect x="94" y="141" width="56" height="9" rx="4.5" fill="#059669"/>

    <rect x="34" y="184" width="180" height="58" rx="18" fill="#ecfdf5"/>
    <circle cx="65" cy="213" r="16" fill="#059669"/>
    <rect x="94" y="201" width="92" height="10" rx="5" fill="#0f172a" opacity=".72"/>
    <rect x="94" y="221" width="62" height="9" rx="4.5" fill="#059669"/>

    <rect x="56" y="272" width="136" height="32" rx="16" fill="url(#green)"/>
  </g>

  <g transform="translate(722 536)">
    <rect x="0" y="12" width="174" height="72" rx="28" fill="#ffffff" opacity=".92"/>
    <path d="M36 36h94l-12 30H52L44 16H24" fill="none" stroke="#0f172a" stroke-width="12" stroke-linecap="round" stroke-linejoin="round"/>
    <circle cx="62" cy="90" r="10" fill="#22c55e"/>
    <circle cx="126" cy="90" r="10" fill="#22c55e"/>
  </g>

  <g transform="translate(240 534)">
    <rect width="130" height="94" rx="24" fill="#ffffff" opacity=".94"/>
    <path d="M38 36c0-34 54-34 54 0" fill="none" stroke="#0f172a" stroke-width="10" stroke-linecap="round"/>
    <path d="M28 42h74l-8 34H36Z" fill="url(#green)"/>
  </g>

  <g transform="translate(396 532)">
    <rect width="184" height="96" rx="24" fill="#f8fafc" opacity=".95"/>
    <rect x="28" y="30" width="128" height="38" rx="12" fill="#0f172a"/>
    <rect x="44" y="43" width="96" height="8" rx="4" fill="#94a3b8"/>
    <rect x="70" y="72" width="44" height="8" rx="4" fill="#10b981"/>
  </g>
</svg>
