<svg xmlns="http://www.w3.org/2000/svg" width="960" height="640" viewBox="0 0 960 640" role="img" aria-labelledby="title desc">
  <title id="title">Produto de moda</title>
  <desc id="desc">Imagem ilustrativa para produto de moda</desc>
  <defs>
    <linearGradient id="bg" x1="0" x2="1" y1="0" y2="1">
      <stop offset="0" stop-color="#fce7f3"/>
      <stop offset="1" stop-color="#fff7ed"/>
    </linearGradient>
    <linearGradient id="shirt" x1="0" x2="1" y1="0" y2="1">
      <stop offset="0" stop-color="#db2777"/>
      <stop offset="1" stop-color="#f97316"/>
    </linearGradient>
  </defs>
  <rect width="960" height="640" fill="url(#bg)"/>
  <circle cx="760" cy="152" r="104" fill="#ffffff" opacity=".58"/>
  <circle cx="178" cy="486" r="122" fill="#ffffff" opacity=".52"/>
  <path d="M360 176h80c16 30 64 30 80 0h80l102 96-72 80-44-38v162H374V314l-44 38-72-80 102-96Z" fill="url(#shirt)"/>
  <path d="M440 176c16 30 64 30 80 0" fill="none" stroke="#ffffff" stroke-width="18" stroke-linecap="round"/>
  <circle cx="480" cy="298" r="15" fill="#ffffff" opacity=".88"/>
  <circle cx="480" cy="358" r="15" fill="#ffffff" opacity=".88"/>
  <rect x="338" y="500" width="284" height="30" rx="15" fill="#0f172a" opacity=".16"/>
</svg>
