<svg xmlns="http://www.w3.org/2000/svg" width="960" height="640" viewBox="0 0 960 640" role="img" aria-labelledby="title desc">
  <title id="title">Produto de tecnologia</title>
  <desc id="desc">Imagem ilustrativa para produto de tecnologia</desc>
  <defs>
    <linearGradient id="bg" x1="0" x2="1" y1="0" y2="1">
      <stop offset="0" stop-color="#dbeafe"/>
      <stop offset="1" stop-color="#ede9fe"/>
    </linearGradient>
    <linearGradient id="screen" x1="0" x2="1" y1="0" y2="1">
      <stop offset="0" stop-color="#1d4ed8"/>
      <stop offset="1" stop-color="#7c3aed"/>
    </linearGradient>
  </defs>
  <rect width="960" height="640" fill="url(#bg)"/>
  <circle cx="760" cy="150" r="110" fill="#ffffff" opacity=".52"/>
  <circle cx="210" cy="510" r="132" fill="#ffffff" opacity=".48"/>
  <rect x="235" y="170" width="490" height="310" rx="28" fill="#0f172a"/>
  <rect x="268" y="203" width="424" height="234" rx="18" fill="url(#screen)"/>
  <rect x="398" y="484" width="164" height="28" rx="14" fill="#334155"/>
  <rect x="345" y="522" width="270" height="22" rx="11" fill="#475569"/>
  <circle cx="640" cy="252" r="34" fill="#bfdbfe" opacity=".92"/>
  <path d="M344 378c62-77 116-89 164-35 24 27 46 36 80 8 28-23 57-18 88 27" fill="none" stroke="#bfdbfe" stroke-width="18" stroke-linecap="round"/>
</svg>
